<svg width="51" height="50" viewBox="0 0 51 50" fill="none" xmlns="http://www.w3.org/2000/svg">
<path d="M50.3484 10.7635L39.7365 0.151598L39.3713 0H11.6287L11.2635 0.151598L0.651598 10.7635L0.5 11.1287V38.8713L0.651598 39.2365L11.2635 49.8484L11.6287 50H39.3713L39.7365 49.8484L50.3484 39.2365L50.5 38.8713V11.1287L50.3484 10.7635ZM40.3084 14.5741L35.9259 10.1916L36.8492 7.95893L42.5411 13.6508L40.3084 14.5741ZM35.099 39.1745H15.901L11.3255 34.599V15.401L15.901 10.8255H35.099L39.6745 15.401V34.599L35.099 39.1745ZM34.968 9.7919H16.032L15.1086 7.56615H35.8914L34.968 9.7919ZM15.0741 10.1916L10.6916 14.5741L8.45893 13.6508L14.1508 7.95893L15.0741 10.1916ZM10.2919 15.532V34.468L8.06615 35.3914V14.6086L10.2919 15.532ZM10.6916 35.4259L15.0741 39.8084L14.1508 42.0411L8.45893 36.3492L10.6916 35.4259ZM16.032 40.2081H34.968L35.8914 42.4339H15.1086L16.032 40.2081ZM35.9259 39.8084L40.3084 35.4259L42.5411 36.3492L36.8492 42.0411L35.9259 39.8084ZM40.7081 34.468V15.532L42.9339 14.6086V35.3914L40.7081 34.468ZM43.5747 13.2235L37.2765 6.9253L38.1998 4.69267L45.7798 12.2726L43.5747 13.2235ZM36.3255 6.53253H14.6745L13.7856 4.32745H37.2834L36.3255 6.53253ZM13.7235 6.9253L7.4253 13.2235L5.19267 12.3002L12.7726 4.72023L13.7235 6.9253ZM7.03253 14.1745V35.8255L4.82745 36.7489V13.2856L7.03253 14.1745ZM7.4253 36.7765L13.7235 43.0747L12.8002 45.3073L5.22023 37.7274L7.4253 36.7765ZM14.6745 43.4675H36.3255L37.2489 45.6726H13.7856L14.6745 43.4675ZM37.2765 43.0747L43.5747 36.7765L45.8004 37.6998L38.2205 45.2798L37.2765 43.0747ZM43.9675 35.8255V14.1745L46.1726 13.2856V36.7834L43.9675 35.8255ZM46.8616 11.9074L38.6271 3.63837L39.5504 1.41262L49.0667 10.9496L46.8616 11.9074ZM37.6761 3.26626H13.3239L12.4074 1.03363H38.5926L37.6761 3.26626ZM12.4074 3.63837L4.13837 11.9074L1.9333 10.9496L11.4496 1.4333L12.4074 3.63837ZM3.76626 12.8239V37.1761L1.53363 38.0926V11.9074L3.76626 12.8239ZM4.13837 38.1271L12.4074 46.3616L11.4496 48.5667L1.9333 39.0504L4.13837 38.1271ZM13.3239 46.7337H37.6761L38.5926 48.9664H12.4074L13.3239 46.7337ZM38.6271 46.3616L46.8616 38.1271L49.0943 39.0504L39.5504 48.5667L38.6271 46.3616ZM47.2337 37.1968V12.8239L49.4664 11.9074V38.0926L47.2337 37.1968Z" fill="black"/>
</svg>
