<svg width="50" height="50" viewBox="0 0 50 50" fill="none" xmlns="http://www.w3.org/2000/svg">
<path d="M49.5127 17.7976C48.7034 12.2928 47.0302 8.2263 44.5417 5.712C42.1114 3.25586 39.1326 1.66489 35.4368 0.846985C32.3221 0.158734 29.017 0.0642205 25.6209 0.0557385L25.6124 0H24.9814C24.3214 0 10.7987 0.0702794 5.63839 5.51813C0.431948 11.0144 0 17.9903 0 25.252C0 25.8143 0.0521736 39.0716 5.45881 44.3001C10.7065 49.3748 17.1299 49.9176 24.3687 49.9443L24.3772 50H25.0069C25.6682 50 39.1896 49.9297 44.35 44.4819C49.5612 38.9807 49.9871 32.5175 49.9883 25.2508C49.9981 24.9782 50.0939 21.7538 49.5115 17.7964L49.5127 17.7976ZM47.8298 34.7034L44.9275 33.8709L48.5226 27.0938C48.4838 29.8081 48.3334 32.3357 47.831 34.7034H47.8298ZM43.5552 43.1987C43.4691 43.2932 43.3841 43.3889 43.2944 43.4834C43.2555 43.5246 43.2155 43.5646 43.1754 43.6046L34.1106 42.7879L36.2121 36.1502L44.0078 34.5471L43.5552 43.1975V43.1987ZM35.0121 47.3924L34.096 43.5173L42.4329 44.2686C40.5279 45.782 37.7724 46.7611 35.0121 47.3924ZM25.6184 48.4914H24.9948C24.8019 48.4914 24.6102 48.4914 24.4197 48.4914L17.21 43.195L24.9984 39.9016C24.9984 39.9016 25.0033 39.8992 25.0057 39.898C25.0227 39.8907 25.0385 39.8822 25.053 39.8725C25.0688 39.8822 25.0846 39.8907 25.1003 39.898C25.1028 39.898 25.1052 39.9004 25.1076 39.9016L32.896 43.195L25.6257 48.535L25.6184 48.4914ZM7.62583 44.2722L16.0088 43.5173L15.0175 47.7111C12.3397 47.1161 9.86323 46.0765 7.62583 44.2735V44.2722ZM2.21677 15.2966L5.05477 16.1109L1.47663 22.8553C1.52881 20.2028 1.70353 17.6752 2.21556 15.2966H2.21677ZM6.42584 6.81466C6.51563 6.7153 6.60299 6.61594 6.69642 6.51779C6.74131 6.47053 6.78742 6.42449 6.83352 6.37844L15.8729 7.19271L13.7714 13.8305L5.97569 15.4323L6.42706 6.81345L6.42584 6.81466ZM14.975 2.61002L15.8862 6.46447L7.57973 5.71564C9.48346 4.2119 12.2268 3.2389 14.975 2.60881V2.61002ZM24.3638 1.46617L24.3711 1.50979H24.996C25.2362 1.50979 25.4753 1.50979 25.7131 1.511L32.8948 6.78679L25.1064 10.0802C25.1064 10.0802 25.1016 10.0839 25.0979 10.0851C25.087 10.0899 25.0761 10.0972 25.0652 10.1032C25.0554 10.1093 25.0445 10.1141 25.0348 10.1214C25.0263 10.1275 25.0178 10.136 25.0093 10.1432C25.0033 10.1493 24.996 10.1541 24.9899 10.1602C24.9839 10.1541 24.9778 10.1493 24.9705 10.1444C24.962 10.1372 24.9535 10.1287 24.9438 10.1226C24.9341 10.1154 24.9244 10.1105 24.9147 10.1044C24.9038 10.0984 24.8929 10.0923 24.8819 10.0863C24.8795 10.0851 24.8771 10.0826 24.8734 10.0814L17.085 6.788L24.3262 1.46859C24.3384 1.46859 24.3505 1.46859 24.3614 1.46859L24.3638 1.46617ZM43.5055 6.73468C43.5213 6.75165 43.537 6.76861 43.554 6.78436L44.0066 15.4335L36.2109 13.8317L34.1094 7.19392L43.1427 6.37965C43.2652 6.49598 43.3866 6.6123 43.5067 6.73468H43.5055ZM25.1282 39.2243C25.1282 39.2243 25.1234 39.2267 25.1198 39.2279C25.1076 39.2327 25.0967 39.2376 25.0858 39.2436C25.0761 39.2485 25.0652 39.2533 25.0554 39.2594C25.0542 39.2594 25.053 39.2606 25.0518 39.2618C25.0518 39.2618 25.0494 39.2618 25.0482 39.2594C25.0385 39.2533 25.0275 39.2485 25.0166 39.2424C25.0057 39.2376 24.9948 39.2315 24.9839 39.2267C24.9814 39.2267 24.9778 39.2243 24.9754 39.223L14.4569 35.5491L10.4529 24.9019C10.4493 24.8934 10.4444 24.8861 10.4408 24.8788C10.4347 24.8667 10.4299 24.8546 10.4226 24.8425C10.4226 24.8425 10.4226 24.8401 10.4214 24.8388L14.3356 14.4315L24.854 10.7576C24.854 10.7576 24.8601 10.7539 24.8637 10.7527C24.8795 10.7467 24.8953 10.7394 24.9098 10.7309C24.9147 10.7285 24.9196 10.7261 24.9244 10.7224C24.9426 10.7115 24.9596 10.6994 24.9754 10.6849C24.9778 10.6824 24.9802 10.68 24.9826 10.6776C24.9851 10.6752 24.9875 10.6727 24.9899 10.6703C24.9924 10.6727 24.9948 10.6752 24.9972 10.6776C24.9996 10.68 25.0021 10.6824 25.0045 10.6849C25.0203 10.6994 25.0372 10.7115 25.0554 10.7224C25.0603 10.7248 25.0652 10.7273 25.07 10.7309C25.0846 10.7394 25.1003 10.7467 25.1173 10.7527C25.121 10.7539 25.1234 10.7564 25.127 10.7576L35.6455 14.4315L39.6167 24.9903L35.6455 35.5491L25.127 39.223L25.1282 39.2243ZM35.3615 36.4204L33.3984 42.6195L26.2579 39.5999L35.3615 36.4204ZM6.55567 43.3356L6.09581 34.5483L13.8915 36.1514L15.993 42.7891L6.85172 43.6131C6.75223 43.5222 6.65274 43.4301 6.55446 43.3368L6.55567 43.3356ZM10.0683 25.9512L13.6027 35.348L6.2402 33.8346L10.0683 25.9512ZM9.94695 24.0306L6.11887 16.1472L13.4814 14.6338L9.94695 24.0306ZM14.7409 36.4204L23.8445 39.5999L16.704 42.6195L14.7409 36.4204ZM14.6195 13.5615L16.5827 7.36235L23.7232 10.3819L14.6195 13.5615ZM40.0341 25.9512L43.8622 33.8346L36.4997 35.348L40.0341 25.9512ZM36.4997 14.6338L43.8622 16.1472L40.0341 24.0306L36.4997 14.6338ZM35.3603 13.5627L26.2567 10.3831L33.3972 7.36356L35.3603 13.5627ZM33.3959 6.25485L26.9543 1.52312C29.6103 1.55947 32.0831 1.69397 34.3727 2.1217L33.3959 6.25485ZM16.5827 6.25485L15.6848 2.45492C18.5046 1.86725 21.2516 1.6249 23.0207 1.52433L16.5827 6.25364V6.25485ZM9.6606 25.1115C9.6606 25.1115 9.66303 25.1151 9.66424 25.1175L5.79005 33.0954L1.45601 24.9249C1.45601 24.7649 1.45601 24.605 1.45722 24.4462L5.57165 16.6901L9.66182 25.1115H9.6606ZM1.5373 27.3968L4.99896 33.923L2.50554 34.6379C1.90494 31.8874 1.6465 29.1889 1.5373 27.3968ZM16.704 43.7294L23.1736 48.4817C20.5625 48.4454 18.0727 48.306 15.7285 47.8577L16.704 43.7294ZM33.3959 43.7294L34.2987 47.5499C31.4594 48.1412 28.6942 48.3836 26.9276 48.4817L33.3959 43.7306V43.7294ZM40.3763 24.9915L44.4082 16.6889L48.5408 24.4814C48.5408 24.9334 48.5323 25.1951 48.5323 25.2133V25.2399C48.5323 25.3344 48.5323 25.4265 48.5323 25.521L44.4094 33.2942L40.3775 24.9915H40.3763ZM44.9251 16.1109L47.5774 15.3499C48.212 18.1962 48.4341 20.9832 48.5069 22.8638L44.9251 16.1109ZM47.41 14.6423L44.7322 15.4105L44.3281 7.67982C45.8193 9.60038 46.7851 12.1171 47.41 14.6423ZM42.3965 5.71685L34.0936 6.46568L35.0861 2.26469C37.7846 2.85237 40.221 3.89201 42.3965 5.71685ZM5.64931 7.73556L5.24769 15.4105L2.38057 14.5878C2.99088 12.128 3.99795 9.83424 5.64931 7.73556ZM2.67056 35.3468L5.36902 34.5725L5.78399 42.5007C4.28915 40.6553 3.3112 38.0113 2.67056 35.3456V35.3468ZM44.3305 42.2899L44.7346 34.5737L47.666 35.4146C47.0618 37.8671 46.0414 40.1476 44.3305 42.2899Z" fill="black"/>
</svg>
