<svg width="36" height="50" viewBox="0 0 36 50" fill="none" xmlns="http://www.w3.org/2000/svg">
<path d="M35.3663 7.24044L28.4144 0.136612L28.1471 0H7.85294L7.56952 0.120218L0.617648 7.22404L0.5 7.51366V42.4863L0.617648 42.776L7.56952 49.8798L7.85294 50H28.1471L28.4305 49.8798L35.3824 42.776L35.5 42.4863V7.51366L35.3663 7.24044ZM29.484 9.45902L26.238 6.13661L26.6925 5.01639L30.5802 8.99454L29.484 9.45902ZM25.5963 43.3388H10.3824L6.98663 39.8743V10.1093L10.3824 6.64481H25.5909L28.9866 10.1093V39.8907L25.5963 43.3388ZM25.4733 5.82514H10.5L10.0455 4.70492H25.9439L25.4733 5.82514ZM9.7246 6.13661L6.47861 9.45902L5.38235 8.99454L9.27005 5.01639L9.7246 6.13661ZM6.16845 10.2131V39.7869L5.07219 40.2514V9.74863L6.16845 10.2131ZM6.47861 40.541L9.7246 43.8634L9.27005 44.9563L5.38235 40.9781L6.47861 40.541ZM10.5 44.1749H25.4733L25.9278 45.2678H10.0294L10.5 44.1749ZM26.2487 43.8634L29.4947 40.541L30.5909 41.0055L26.7032 44.9836L26.2487 43.8634ZM29.8048 39.7869V10.2131L30.9011 9.74863V40.2514L29.8048 39.7869ZM31.4091 8.63934L27.0508 4.18579L27.5054 3.0929L32.5107 8.20219L31.4091 8.63934ZM26.2754 3.88525H9.69786L9.24332 2.75956H26.7299L26.2754 3.88525ZM8.95455 4.19672L4.61765 8.65027L3.51604 8.18579L8.52139 3.0765L8.95455 4.19672ZM4.2861 9.40984V40.5902L3.18984 41.0546V8.94536L4.2861 9.40984ZM4.61765 41.3497L8.97594 45.8033L8.52139 46.9235L3.49465 41.8142L4.61765 41.3497ZM9.71925 46.1148H26.2968L26.7513 47.2404H9.24332L9.71925 46.1148ZM27.0401 45.8033L31.3556 41.3497L32.4572 41.8142L27.4519 46.9235L27.0401 45.8033ZM31.7086 40.5902V9.40984L32.7781 8.94536V41.0546L31.7086 40.5902ZM33.3128 7.847L27.8048 2.25683L28.2594 1.13115L34.377 7.38251L33.3128 7.847ZM27.0775 1.93989H8.89572L8.44118 0.846995H27.516L27.0775 1.93989ZM8.18449 2.25683L2.69251 7.847L1.62299 7.38251L7.71391 1.13115L8.18449 2.25683ZM2.3877 8.60656V41.3934L1.31818 41.8579V8.14208L2.3877 8.60656ZM2.69251 42.153L8.16845 47.7432L7.71391 48.8689L1.59626 42.6175L2.69251 42.153ZM8.89572 48.0601H27.0775L27.5321 49.153H8.45722L8.89572 48.0601ZM27.7888 47.7432L33.2808 42.153L34.377 42.6175L28.2594 48.8689L27.7888 47.7432ZM33.5856 41.3934V8.60656L34.6551 8.14208V41.8579L33.5856 41.3934Z" fill="black"/>
</svg>
