<svg width="50" height="50" viewBox="0 0 50 50" fill="none" xmlns="http://www.w3.org/2000/svg">
<path d="M1.10337 22.0916C1.62602 24.4431 2.38095 26.6708 3.3101 28.7748C5.34263 33.6634 8.42044 37.9332 12.4855 41.7079C15.9117 44.8639 20.0348 47.6485 24.7967 50C24.7967 50 24.7967 50 24.8548 50C24.9129 50 24.9129 50 24.971 50C25.029 50 25.0871 50 25.1452 49.9381C39.9535 42.7599 48.2578 31.6213 49.8258 17.0173C49.9419 15.9035 50 14.9752 50 14.1708C50 13.6139 49.9419 12.995 49.8839 12.4381C49.3612 8.04455 46.9803 4.2698 43.554 2.04208C43.554 2.04208 43.554 2.04208 43.4959 2.04208C41.4634 0.742574 39.1405 0 36.5854 0C31.8815 0 26.0163 3.83663 24.971 4.57921C23.9257 3.83663 18.0604 0 13.3566 0C10.8014 0 8.47851 0.742574 6.44599 2.04208C6.44599 2.04208 6.38792 2.04208 6.38792 2.10396C2.55517 4.57921 0 9.09653 0 14.2327C0 15.0371 0.0580718 15.9653 0.174216 17.0792C0.406504 18.75 0.696864 20.4827 1.10337 22.0916ZM1.74216 22.2772L7.08479 20.854L3.60047 27.9703C2.78746 26.1139 2.20674 24.2574 1.74216 22.2772ZM11.6725 15.5941L7.60743 19.9257L0.987224 12.6238L11.6725 8.41584V15.5941ZM11.7886 16.3366L13.0081 24.2574L8.07201 20.297L11.7886 16.3366ZM7.72358 20.854L13.1243 25.1238L11.7886 30.8168L4.00697 28.4653L7.72358 20.854ZM13.5308 25.6807L18.4669 32.2401L12.3113 30.9406L13.5308 25.6807ZM4.06504 29.146L11.3821 31.3119L7.60743 35.2723C6.27178 33.354 5.05226 31.3119 4.06504 29.146ZM8.01394 35.8292L11.7305 31.8688L12.3693 40.7178C10.7433 39.1708 9.29152 37.5619 8.01394 35.8292ZM12.2532 31.5594L18.9315 32.9827L20.2671 40.1609L12.9501 41.0891L12.2532 31.5594ZM19.6283 33.4777L24.5064 37.3762L20.8479 39.9752L19.6283 33.4777ZM13.3566 41.7079L20.2671 40.8416L19.0476 46.0396C17.0151 44.6782 15.0987 43.2549 13.3566 41.7079ZM19.5703 46.349L20.7317 41.3366L24.3322 49.0718C22.7062 48.2054 21.0801 47.3391 19.5703 46.349ZM25.029 49.0718L21.0801 40.5941L25.0871 37.7475L29.0941 40.5941L25.029 49.0718ZM25.5517 37.3762L30.4297 33.4777L29.2102 39.9752L25.5517 37.3762ZM25.6098 49.1337L29.2683 41.3366L30.5459 46.2871C29.036 47.2772 27.3519 48.2054 25.6098 49.1337ZM31.0685 45.9777L29.7329 40.8416L36.5854 41.7698C34.9594 43.2549 33.101 44.6163 31.0685 45.9777ZM29.7329 40.2228L31.0685 33.0446L37.7468 31.6213L36.9919 41.2129L29.7329 40.2228ZM31.5331 32.2401L36.4692 25.6807L37.6887 30.9406L31.5331 32.2401ZM37.6307 40.7797L38.3275 31.8688L42.0441 35.8292C40.7666 37.5619 39.3148 39.2327 37.6307 40.7797ZM42.3926 35.3342L38.6179 31.3738L45.993 29.146C45.0058 31.3119 43.8444 33.354 42.3926 35.3342ZM38.3275 30.8168L36.9919 25.1238L42.3926 20.854L46.1092 28.5272L38.3275 30.8168ZM38.2695 16.3366L41.9861 20.297L37.0499 24.2574L38.2695 16.3366ZM37.8049 15.2847L30.662 12.7475L37.8049 8.47772V15.2847ZM38.3856 15.5941V8.41584L49.0709 12.6238L42.4506 19.9257L38.3856 15.5941ZM46.4576 28.0322L42.9733 20.854L48.3159 22.2772C47.8513 24.2574 47.2706 26.1757 46.4576 28.0322ZM49.4193 14.1708C49.4193 14.9134 49.3612 15.8416 49.2451 16.9554C49.0708 18.5644 48.8386 20.1114 48.4901 21.6584L43.0314 20.1733L49.4193 13.1807C49.4193 13.4901 49.4193 13.8614 49.4193 14.1708ZM49.2451 12.0049L38.6179 7.85891L43.4959 2.66089C46.5157 4.70297 48.6643 8.10643 49.2451 12.0049ZM36.6434 0.55693C38.9663 0.55693 41.115 1.23762 42.9733 2.35148L38.0952 7.5495L32.7526 1.2995C34.0883 0.866336 35.4239 0.55693 36.6434 0.55693ZM37.6307 7.92079L29.9071 12.5L25.4936 10.953L32.23 1.60891L37.6307 7.92079ZM25.3194 5.07426C25.9001 4.70297 28.4553 2.9703 31.417 1.79455L25.3194 10.1485V5.07426ZM25.3194 11.5099L29.2102 12.8713L25.3194 15.1609V11.5099ZM24.9129 15.9653C24.971 15.9653 24.971 16.0272 25.029 16.0272C25.0871 16.0272 25.1452 16.0272 25.1452 15.9653L29.9071 13.1188L37.6887 15.9035L36.295 24.8762L30.5459 32.4876L25.029 37.005L19.4541 32.5495L13.705 24.9381L12.3113 15.9653L20.0929 13.1807L24.9129 15.9653ZM12.2532 15.2847V8.47772L19.3961 12.6856L12.2532 15.2847ZM20.8479 12.8713L24.7387 11.5099V15.2228L20.8479 12.8713ZM24.7387 5.07426V10.1485L18.525 1.73267C21.5447 2.90842 24.158 4.64109 24.7387 5.07426ZM24.5645 10.953L20.151 12.5L12.4274 7.92079L17.712 1.60891L24.5645 10.953ZM13.4146 0.55693C14.6341 0.55693 15.9117 0.804455 17.2474 1.23762L11.9628 7.48762L7.08479 2.2896C8.94309 1.23762 11.0918 0.55693 13.4146 0.55693ZM6.56214 2.66089L11.4402 7.85891L0.813008 12.0049C1.39373 8.10643 3.54239 4.76485 6.56214 2.66089ZM0.696864 13.1807L7.08479 20.1733L1.62602 21.6584C1.27758 20.1114 1.0453 18.5644 0.87108 16.9554C0.696864 15.8416 0.638792 14.9134 0.638792 14.1708C0.638792 13.8614 0.638792 13.4901 0.696864 13.1807Z" fill="black"/>
</svg>
