<svg width="27" height="50" viewBox="0 0 27 50" fill="none" xmlns="http://www.w3.org/2000/svg">
<path d="M13.7577 0H13.2423C5.53772 6.16363 0.750488 15.7436 0.750488 25C0.750488 34.2564 5.53772 43.8364 13.2423 50H13.7577C21.4623 43.8364 26.2495 34.2564 26.2495 25C26.2495 15.7436 21.4623 6.16363 13.7577 0ZM13.5 39.4001L9.96304 36.4554L6.78251 25L9.96304 13.5446L13.5 10.5999L17.037 13.5446L20.2175 25L17.037 36.4554L13.5 39.4001ZM12.9516 10.0077L10.2592 12.2505L11.153 7.76486L12.9516 10.0077ZM9.22274 13.1059L4.83581 17.4929L4.91807 11.7076L10.2921 7.77034L9.22274 13.1059ZM6.37124 26.4806L8.81695 35.2928L4.90162 31.3775L6.37124 26.4806ZM6.37124 23.5194L4.90162 18.6225L8.81695 14.7072L6.37124 23.5194ZM5.92706 25L4.31487 30.385L1.62239 25L4.31487 19.615L5.92706 25ZM9.21726 36.8941L10.2866 42.2242L4.91259 38.2869L4.83581 32.5016L9.21726 36.8941ZM11.1256 42.2351L10.2317 37.7495L12.9516 39.9923L11.1256 42.2351ZM20.6562 26.4806L22.1258 31.3775L18.2105 35.2928L20.6562 26.4806ZM20.6562 23.5194L18.2105 14.7072L22.1258 18.6225L20.6562 23.5194ZM17.7773 13.1005L16.7079 7.77034L22.0819 11.7076L22.1642 17.4929L17.7773 13.1005ZM15.8689 7.75938L16.7902 12.2505L14.0484 10.0077L15.8689 7.75938ZM16.7902 37.7495L15.8964 42.2351L14.0484 39.9923L16.7902 37.7495ZM17.8047 36.8941L22.1916 32.5071L22.1093 38.2924L16.7354 42.2297L17.8047 36.8941ZM21.0949 25L22.7071 19.615L25.3776 25L22.6851 30.385L21.0949 25ZM23.1677 18.6883L24.4673 18.0193C24.9061 19.6845 25.1942 21.3858 25.3283 23.1027L23.1677 18.6883ZM22.9922 17.8712L22.9264 13.4843C23.4477 14.7027 23.8945 15.9516 24.2644 17.2242L22.9922 17.8712ZM16.7902 6.79974L18.2269 5.6372C19.3452 7.0309 20.3518 8.51059 21.2374 10.0625L16.7902 6.79974ZM13.5 9.40448L11.3723 6.7449L13.5 1.42027L15.6277 6.73393L13.5 9.40448ZM5.779 10.0625C6.66466 8.51059 7.67129 7.0309 8.78953 5.6372L10.2098 6.79974L5.779 10.0625ZM4.00778 17.8712L2.73557 17.2132C3.10588 15.9444 3.5527 14.6991 4.07359 13.4843L4.00778 17.8712ZM3.85424 18.7157L1.66078 23.1027C1.79839 21.3855 2.0902 19.6842 2.53268 18.0193L3.85424 18.7157ZM3.85424 31.3281L2.53268 31.9807C2.0939 30.3155 1.80576 28.6142 1.67174 26.8973L3.85424 31.3281ZM4.00778 32.1726L4.07359 36.5596C3.55229 35.3412 3.10546 34.0923 2.73557 32.8197L4.00778 32.1726ZM10.2098 43.2003L8.77308 44.3628C7.65484 42.9691 6.64821 41.4894 5.76255 39.9375L10.2098 43.2003ZM13.5 40.5955L15.6277 43.2551L13.5 48.5797L11.3723 43.2661L13.5 40.5955ZM21.221 39.9375C20.3353 41.4894 19.3287 42.9691 18.2105 44.3628L16.7902 43.2003L21.221 39.9375ZM22.9922 32.1562L24.2644 32.7868C23.8941 34.0556 23.4473 35.3009 22.9264 36.5157L22.9922 32.1562ZM23.1458 31.3117L25.3392 26.9248C25.2 28.6327 24.9082 30.3248 24.4673 31.9807L23.1458 31.3117ZM17.6621 4.99013L16.2528 6.13621L14.5035 1.72187C15.6389 2.7394 16.7017 3.83515 17.684 5.0011L17.6621 4.99013ZM12.4746 1.69993L10.7033 6.12525L9.29403 4.97916C10.2842 3.82001 11.3543 2.73159 12.4965 1.72187L12.4746 1.69993ZM9.29403 44.977L10.7033 43.8309L12.4746 48.2562C11.3475 47.2449 10.2921 46.1566 9.31596 44.9989L9.29403 44.977ZM14.4816 48.2672L16.2528 43.8419L17.6621 44.9879C16.6872 46.1569 15.6317 47.2563 14.5035 48.2781L14.4816 48.2672Z" fill="black"/>
</svg>
