<svg width="36" height="50" viewBox="0 0 36 50" fill="none" xmlns="http://www.w3.org/2000/svg">
<path d="M18 0C8.31694 0 0.442627 11.2131 0.442627 25C0.442627 38.7869 8.31694 50 18 50C27.6831 50 35.5574 38.7869 35.5574 25C35.5574 11.2131 27.6831 0 18 0ZM29.7978 30.3989L27.4481 25L29.7978 19.6011L34.6011 25L29.7978 30.3989ZM23.9781 33.9344L18 36.8415L12.0219 33.9344L9.42623 25L12.0219 16.0656L18 13.1585L23.9781 16.0656L26.5738 25L23.9781 33.9344ZM12.9563 40.4098L12.1913 34.9454L17.2022 37.3825L12.9563 40.4098ZM18 37.7978L22.8033 41.2459L18 48.8251L13.1967 41.2459L18 37.7978ZM23.0437 40.4098L18.7978 37.3607L23.8087 34.9235L23.0437 40.4098ZM6.20219 30.3989L1.39891 25L6.20219 19.6011L8.55192 25L6.20219 30.3989ZM8.93443 23.7978L6.85246 19.0273L11.0055 16.6393L8.93443 23.7978ZM8.93443 26.2022L11.0055 33.3607L6.84153 30.9727L8.93443 26.2022ZM23.0437 9.59016L23.8087 15.0546L18.7978 12.6175L23.0437 9.59016ZM18 12.2022L13.1967 8.7541L18 1.17486L22.8033 8.7541L18 12.2022ZM12.9563 9.59016L17.2022 12.6393L12.1913 15.0765L12.9563 9.59016ZM27.0765 23.7978L24.9945 16.6393L29.1585 19.0273L27.0765 23.7978ZM27.0765 26.2022L29.1585 30.9727L24.9945 33.3607L27.0765 26.2022ZM30.2842 18.918L33.6503 16.4372C34.2886 18.8786 34.6479 21.3846 34.7213 23.9071L30.2842 18.918ZM30.1803 17.9727L31 9.77596C32.0235 11.6108 32.8356 13.5559 33.4208 15.5738L30.1803 17.9727ZM29.3333 18.1803L24.6995 15.5246L23.8251 9.25137L30.2623 8.93989L29.3333 18.1803ZM23.1366 7.74863L18.765 0.846995C20.6333 0.984721 22.4458 1.54529 24.0656 2.48634L23.1366 7.74863ZM12.8634 7.74863L11.9344 2.46995C13.5542 1.5289 15.3667 0.968328 17.235 0.830601L12.8634 7.74863ZM11.3006 15.5246L6.66667 18.1803L5.73771 8.93989L12.1749 9.25137L11.3006 15.5246ZM5.83607 17.9727L2.59563 15.5902C3.18081 13.5723 3.99292 11.6272 5.0164 9.79235L5.83607 17.9727ZM5.73224 18.918L1.27869 23.9071C1.35963 21.3856 1.72627 18.8815 2.37159 16.4426L5.73224 18.918ZM5.73224 31.082L2.36612 33.5628C1.72224 31.122 1.35743 28.616 1.27869 26.0929L5.73224 31.082ZM5.83607 32.0273L5.0164 40.224C3.99292 38.3892 3.18081 36.4441 2.59563 34.4262L5.83607 32.0273ZM6.68306 31.8197L11.3169 34.4754L12.1913 40.7486L5.7541 41.0601L6.68306 31.8197ZM12.8634 42.2514L17.235 49.153C15.3667 49.0153 13.5542 48.4547 11.9344 47.5137L12.8634 42.2514ZM23.1366 42.2514L24.0656 47.5301C22.4458 48.4711 20.6333 49.0317 18.765 49.1694L23.1366 42.2514ZM24.6995 34.4754L29.3333 31.8197L30.2623 41.0601L23.8251 40.7486L24.6995 34.4754ZM30.1639 32.0273L33.4044 34.4098C32.8192 36.4277 32.0071 38.3728 30.9836 40.2077L30.1639 32.0273ZM30.2678 31.082L34.7213 26.0929C34.6404 28.6144 34.2737 31.1185 33.6284 33.5574L30.2678 31.082ZM29.9617 8.13115L23.8361 8.42623L24.8197 2.9235C26.8703 4.29675 28.6244 6.0676 29.9781 8.13115H29.9617ZM11.1803 2.9235L12.1475 8.42623L6.02186 8.13115C7.37559 6.0676 9.12972 4.29675 11.1803 2.9235ZM6.02186 41.8689L12.1475 41.5738L11.1803 47.0765C9.12972 45.7033 7.37559 43.9324 6.02186 41.8689ZM24.8197 47.0765L23.8525 41.5738L29.9781 41.8689C28.6244 43.9324 26.8703 45.7033 24.8197 47.0765Z" fill="black"/>
</svg>
