<svg width="37" height="50" viewBox="0 0 37 50" fill="none" xmlns="http://www.w3.org/2000/svg">
<path d="M14.7721 3.35211C7.16119 11.1829 2.51769 19.2059 1.03397 27.1191C0.347067 30.746 0.594353 36.4611 1.5835 39.456C3.34198 44.8688 7.16119 48.3033 12.9312 49.5672C15.5689 50.1443 21.4489 50.1443 24.0866 49.5672C30.4611 48.166 34.6375 43.9071 35.9289 37.5876C36.4784 34.8674 36.5059 29.8393 35.9564 26.9543C34.8573 21.1568 31.9723 15.2219 27.2189 8.9298C25.0757 6.12722 19.1134 0 18.5089 0C18.2341 0 16.5581 1.5112 14.7721 3.35211ZM20.8169 5.44031C21.9984 7.66589 22.9601 9.58923 22.9601 9.75409C22.9601 10.1113 19.0584 12.6116 18.5089 12.6116C18.0693 12.6116 14.0852 10.1662 14.0303 9.86399C13.9753 9.61671 18.3166 1.37382 18.5089 1.37382C18.5913 1.37382 19.608 3.18725 20.8169 5.44031ZM15.1843 5.6876C14.2501 7.47355 13.3983 9.0397 13.2884 9.14961C13.1785 9.28699 12.7389 9.06718 12.2993 8.68251L11.5024 7.99561L12.4641 6.9515C14.0852 5.19302 16.6955 2.47287 16.8054 2.47287C16.8603 2.47287 16.1185 3.92911 15.1843 5.6876ZM25.378 8.07803C25.378 8.24289 25.0483 8.62756 24.6361 8.90232C23.8118 9.5068 24.1141 9.89147 21.7511 5.35788L20.1575 2.33549L22.7677 5.05564C24.1965 6.56684 25.378 7.91317 25.378 8.07803ZM12.4641 10.0289C12.4641 10.2212 7.49091 14.0679 7.381 13.9854C7.32605 13.903 8.09538 12.7215 9.08453 11.3477L10.8705 8.79242L11.6673 9.36942C12.1069 9.67166 12.4641 9.9739 12.4641 10.0289ZM28.4278 12.0621C29.2247 13.1611 29.7192 14.0404 29.5819 13.9854C29.417 13.9305 28.1806 13.0238 26.8617 11.9797L24.4438 10.0838L25.2406 9.42437L26.0099 8.73746L26.532 9.3969C26.8067 9.72661 27.6585 10.9356 28.4278 12.0621ZM17.6571 13.4084C17.6297 13.7656 12.3267 18.3816 12.2443 18.1344C12.1619 17.9146 12.9862 13.4634 13.4807 11.3477C13.6181 10.7707 13.7005 10.7982 15.6514 12.0071C16.7779 12.6666 17.6846 13.326 17.6571 13.4084ZM24.169 14.3976C24.5537 16.3209 24.8285 17.997 24.7735 18.1344C24.6911 18.3816 19.3881 13.7656 19.3607 13.4084C19.3332 13.2436 23.2348 10.7432 23.3722 10.8531C23.4272 10.8806 23.7844 12.4742 24.169 14.3976ZM11.8322 15.3867L11.0079 19.5082L8.78229 21.5139C7.54586 22.6405 6.39185 23.6296 6.22699 23.7395C5.95223 23.9044 5.8698 23.1076 5.8698 20.1401V16.3484L9.11201 13.8206C10.8705 12.4193 12.4092 11.2928 12.4916 11.2653C12.574 11.2653 12.2993 13.1337 11.8322 15.3867ZM27.8783 13.7931L31.148 16.3484V20.1401C31.148 23.1076 31.0656 23.9044 30.8183 23.7395C30.626 23.6296 29.4719 22.6405 28.2355 21.5139L26.0099 19.5082L25.1856 15.3867C24.7185 13.1337 24.4163 11.2653 24.4713 11.2653C24.5537 11.2653 26.0649 12.4193 27.8783 13.7931ZM21.9984 17.0353L25.2955 20.0302L26.7243 25.7728L28.1531 31.4878L26.8067 35.1422C26.0374 37.148 25.3505 38.8515 25.2681 38.9339C25.1856 39.0163 23.647 39.6208 21.8335 40.2803L18.5089 41.4892L15.1843 40.2803C13.3708 39.6208 11.8322 39.0163 11.7497 38.9339C11.6673 38.8515 10.9804 37.148 10.2111 35.1422L8.86472 31.4878L10.2935 25.7728L11.7223 20.0302L15.0194 17.0353C16.8603 15.3593 18.4265 14.0129 18.5089 14.0129C18.5913 14.0129 20.1575 15.3593 21.9984 17.0353ZM4.96309 24.344C4.74327 24.5638 2.84741 23.767 2.84741 23.4373C2.84741 23.245 3.31451 21.9261 3.89151 20.5523L4.90813 18.0245L4.99056 21.1293C5.01804 22.8603 5.01804 24.2891 4.96309 24.344ZM33.1812 20.6072C33.7308 21.981 34.1704 23.245 34.1704 23.4648C34.1704 23.6846 33.8682 23.9319 33.511 24.0143C33.1538 24.0967 32.6592 24.2616 32.4119 24.344C32.0272 24.4814 31.9723 24.1242 31.9723 21.3216C31.9723 19.5631 32.0272 18.1344 32.0822 18.1344C32.1371 18.1344 32.6317 19.2609 33.1812 20.6072ZM9.5791 25.3057C9.02958 27.4763 8.535 29.4546 8.45258 29.6744C8.28772 30.0865 6.11709 25.8277 6.17204 25.1683C6.17204 24.8661 10.321 21.1293 10.4858 21.2941C10.5408 21.3216 10.1286 23.135 9.5791 25.3057ZM29.7192 23.9593C30.3512 24.5363 30.8732 25.1133 30.8732 25.2507C30.8732 25.3881 30.4061 26.5146 29.8017 27.7785C29.1422 29.2348 28.6751 29.9217 28.5652 29.6744C28.4004 29.1798 26.477 21.5414 26.477 21.2667C26.477 21.1018 27.5486 21.981 29.7192 23.9593ZM35.1321 27.0092C35.8739 30.4712 35.6266 30.691 33.9506 28.0258C33.1538 26.7894 32.4669 25.6354 32.4394 25.4705C32.3844 25.1408 34.2253 24.4539 34.5001 24.7012C34.61 24.8111 34.9123 25.8277 35.1321 27.0092ZM4.52346 25.1958C4.7158 25.3881 2.40779 29.3996 1.69341 30.0865C1.39117 30.3888 1.5835 28.3281 2.07807 25.9926L2.35284 24.6737L3.34198 24.8386C3.86403 24.921 4.41356 25.0859 4.52346 25.1958ZM7.18867 33.6585C6.72157 34.8674 6.17204 36.3786 5.95223 37.0106C5.73242 37.67 5.45766 38.1921 5.37523 38.1921C4.96309 38.1646 1.44612 32.1473 1.63845 31.8176C1.74836 31.6252 2.65508 30.2239 3.64422 28.7127L5.40271 25.9651L6.69409 28.7127L7.98548 31.4604L7.18867 33.6585ZM33.7582 29.2623L35.5992 32.1473L33.7033 35.1697C32.6867 36.8182 31.78 38.1646 31.6975 38.1921C31.6151 38.1921 30.9831 36.6809 30.2962 34.84L29.0323 31.4878L30.2688 28.7952C30.9557 27.3389 31.5876 26.1849 31.6975 26.2399C31.8074 26.3223 32.7416 27.6686 33.7582 29.2623ZM9.55163 35.7192C10.1012 37.148 10.5408 38.4943 10.5408 38.6592C10.5408 38.9064 9.90882 39.0163 8.34267 39.0163C7.13371 39.0163 6.14457 38.9614 6.14457 38.9064C6.14457 38.7965 7.35352 35.4719 8.04043 33.6859C8.23277 33.2463 8.39762 32.9441 8.45258 32.999C8.535 33.054 9.0021 34.2904 9.55163 35.7192ZM29.8841 36.0764C30.4336 37.5326 30.8732 38.824 30.8732 38.879C30.8732 38.9614 29.8841 39.0163 28.6751 39.0163C27.1914 39.0163 26.477 38.9064 26.477 38.6866C26.477 38.0272 28.5103 32.9716 28.6751 33.1639C28.785 33.2738 29.3346 34.5927 29.8841 36.0764ZM3.17713 36.4611C4.02889 37.8074 4.8257 39.1263 4.99056 39.4285C5.43018 40.3077 6.72157 45.3909 6.52923 45.5832C6.22699 45.8854 4.22123 43.2752 3.28703 41.3518C2.1605 39.0163 1.0065 34.0706 1.5835 34.0706C1.63845 34.0706 2.35284 35.1422 3.17713 36.4611ZM35.1595 37.3952C34.9123 38.5218 34.3078 40.2803 33.7857 41.3518C32.7966 43.3027 30.7908 45.8854 30.4886 45.5832C30.2962 45.3909 31.5876 40.3352 32.0272 39.4285C32.1921 39.1263 33.0164 37.7799 33.8682 36.4061C35.1595 34.3454 35.4068 34.0706 35.4893 34.6476C35.5442 35.0323 35.3794 36.2687 35.1595 37.3952ZM11.9421 42.0937C12.3542 43.2752 12.6015 44.2918 12.4916 44.3468C12.3542 44.4292 11.2552 44.9238 10.0187 45.4458L7.79314 46.38L7.51838 45.2535C7.35352 44.6215 6.96886 43.2202 6.66662 42.1486C6.39185 41.1045 6.14457 40.1154 6.14457 40.0055C6.14457 39.9231 7.27109 39.8681 8.64491 39.8956L11.1453 39.978L11.9421 42.0937ZM30.8732 40.0604C30.8732 40.1704 30.626 41.132 30.3512 42.1761C30.0489 43.2477 29.6918 44.6215 29.5269 45.2535L29.2247 46.38L26.9991 45.4458C25.7626 44.9238 24.6636 44.4292 24.5262 44.3468C24.3888 44.2918 24.5537 43.495 24.8834 42.6432C25.1856 41.7915 25.5703 40.8023 25.6802 40.4451C25.9 39.8681 26.0649 39.8406 28.4004 39.8406C29.7467 39.8406 30.8732 39.9231 30.8732 40.0604ZM15.0194 41.0771C16.1734 41.4892 17.1351 41.9014 17.1351 42.0113C17.1351 42.1212 16.3383 42.5883 15.3491 43.0828L13.5632 43.9621L13.2609 43.2202C12.7664 41.9563 12.1894 40.3352 12.1894 40.1978C12.1894 40.1154 12.3542 40.1429 12.5465 40.1978C12.7114 40.2803 13.8379 40.6649 15.0194 41.0771ZM24.8285 40.2253C24.8285 40.3352 24.224 42.0387 23.7569 43.2202L23.4546 43.9621L21.6687 43.0828C20.6795 42.5883 19.8827 42.1212 19.8827 42.0113C19.8827 41.9288 20.8993 41.4617 22.1632 40.9946C24.4713 40.1429 24.8285 40.033 24.8285 40.2253ZM20.9268 43.6324L22.9051 44.649L20.707 46.8471L18.5089 49.0452L16.3108 46.8471L14.1127 44.649L16.091 43.6324C17.19 43.0828 18.2891 42.6157 18.5089 42.6157C18.7287 42.6157 19.8278 43.0828 20.9268 43.6324ZM15.2117 47.1219L17.245 49.1826H16.1734C14.0028 49.1551 8.61743 47.6439 8.61743 47.012C8.61743 46.8746 12.4641 45.1985 13.0136 45.0886C13.0961 45.0611 14.0852 45.9953 15.2117 47.1219ZM26.2847 46.0228C27.4387 46.4624 28.4004 46.9295 28.4004 47.012C28.4004 47.6439 23.0425 49.1551 20.8444 49.1826H19.7728L21.8061 47.1219C22.9326 45.9953 23.9217 45.0886 24.0316 45.1161C24.1141 45.171 25.1307 45.5557 26.2847 46.0228Z" fill="black"/>
</svg>
