<svg width="51" height="50" viewBox="0 0 51 50" fill="none" xmlns="http://www.w3.org/2000/svg">
<path d="M49.9832 0H1.01681L0.5 0.516814V49.4832L1.01681 50H49.9832L50.5 49.4832V0.516814L49.9832 0ZM49.4664 35.0882H44.7944V14.9118H49.4733L49.4664 35.0882ZM1.53363 14.9118H6.20562V35.0882H1.53363V14.9118ZM15.4118 6.98732L24.0598 10.3087L15.4118 13.637V6.98732ZM10.2574 25L7.24614 32.828V17.172L10.2574 25ZM7.5011 14.9118H14.1508L10.8087 23.5598L7.5011 14.9118ZM10.8225 26.4402L14.1508 35.0882H7.48732L10.8225 26.4402ZM15.4256 36.363L24.0736 39.6913L15.4118 43.0127L15.4256 36.363ZM15.3084 35.2053L11.3669 25L15.2947 14.7947L25.5 10.8669L35.7053 14.7947L39.6331 25L35.7053 35.2053L25.5 39.1331L15.3084 35.2053ZM35.602 13.637L26.9402 10.3087L35.5882 6.98732L35.602 13.637ZM35.602 36.3768V43.0265L26.9402 39.6913L35.602 36.3768ZM40.2051 26.454L43.5265 35.102H36.863L40.2051 26.454ZM40.7563 25.0138L43.7676 17.1858V32.828L40.7563 25.0138ZM40.2051 23.5736L36.863 14.9118H43.5127L40.2051 23.5736ZM25.5 9.75744L17.672 6.74614H33.328L25.5 9.75744ZM14.3782 13.892H6.28142L1.89195 1.48842L14.3782 6.629V13.892ZM14.3782 36.1356V43.4192L1.89195 48.5598L6.28142 36.1563L14.3782 36.1356ZM25.5 40.2701L33.328 43.2814H17.672L25.5 40.2701ZM36.6218 36.1356H44.7186L49.1081 48.5391L36.6218 43.4192V36.1356ZM36.6218 13.892V6.58076L49.1081 1.44019L44.7186 13.8437L36.6218 13.892ZM36.6218 5.47133V1.03363H47.3716L36.6218 5.47133ZM35.5882 5.7263H15.4118V1.03363H35.5882V5.7263ZM14.3782 5.47133L3.62845 1.04741H14.3782V5.47133ZM5.18578 13.8782H1.53363V3.5419L5.18578 13.8782ZM1.53363 36.1218H5.18578L1.53363 46.4581V36.1218ZM14.3782 44.5424V48.9664H3.62845L14.3782 44.5424ZM15.4118 44.2875H35.5882V48.9664H15.4118V44.2875ZM36.6218 44.5424L47.3716 48.9664H36.6218V44.5424ZM45.8142 36.1218H49.4664V46.4581L45.8142 36.1218ZM49.4664 13.8782H45.8142L49.4664 3.5419V13.8782Z" fill="black"/>
</svg>
