<svg width="39" height="50" viewBox="0 0 39 50" fill="none" xmlns="http://www.w3.org/2000/svg">
<path d="M38.3087 5.27048C38.3087 5.26421 38.3087 5.2567 38.3087 5.25043C38.3062 5.20784 38.3012 5.16524 38.2912 5.12515C38.2912 5.12014 38.2887 5.11513 38.2874 5.11012C38.2774 5.06753 38.2636 5.02618 38.2461 4.98735C38.2436 4.98234 38.2411 4.97732 38.2386 4.97231C38.2198 4.93222 38.1985 4.89464 38.1734 4.85956C38.1697 4.85455 38.1659 4.85079 38.1634 4.84578C38.1371 4.80945 38.107 4.77563 38.0745 4.74556C38.072 4.74431 38.0707 4.7418 38.0695 4.7393L33.1498 0.19794C33.1498 0.19794 33.1447 0.194182 33.1422 0.192929C33.1097 0.162862 33.0733 0.136554 33.0358 0.112751C33.0307 0.108992 33.0257 0.106487 33.0207 0.102729C32.9831 0.0814312 32.9443 0.0626395 32.9042 0.0476061C32.8979 0.0451005 32.8929 0.0438473 32.8867 0.0413417C32.8466 0.0275611 32.8052 0.0175388 32.7639 0.0100221C32.7576 0.0100221 32.7514 0.00751642 32.7451 0.00751642C32.7113 0.00250527 32.6762 0 32.6411 0H6.3564C6.32132 0 6.28624 0.00375806 6.25241 0.00751642C6.24615 0.00751642 6.23988 0.00876926 6.23362 0.0100221C6.19103 0.0175388 6.14968 0.0275611 6.11085 0.0413417C6.10458 0.0438473 6.09957 0.0451005 6.09456 0.0476061C6.05322 0.0626395 6.01438 0.0814312 5.97805 0.102729C5.97304 0.105234 5.96803 0.108992 5.96302 0.111498C5.92418 0.135301 5.88911 0.162862 5.85528 0.192929C5.85277 0.195435 5.85027 0.196687 5.84776 0.19794L0.928067 4.7393C0.928067 4.7393 0.921802 4.74556 0.919297 4.74932C0.908022 4.76059 0.898 4.77062 0.886725 4.78189C0.879208 4.78941 0.871692 4.79692 0.865428 4.80569C0.856658 4.81697 0.847888 4.82824 0.839119 4.83952C0.832855 4.84829 0.825338 4.85706 0.819074 4.86583C0.811558 4.8771 0.804041 4.88963 0.796524 4.90216C0.79026 4.91093 0.785249 4.92095 0.778985 4.92972C0.771469 4.94475 0.763952 4.95853 0.757688 4.97357C0.75393 4.98108 0.750171 4.9886 0.746413 4.99612C0.717598 5.06502 0.697554 5.13768 0.690038 5.21535C0.688785 5.23039 0.688784 5.24542 0.687531 5.26171C0.687531 5.27173 0.686279 5.28175 0.686279 5.29177V44.707C0.686279 44.7208 0.687532 44.7333 0.688784 44.7471C0.688784 44.7596 0.688785 44.7709 0.690038 44.7834C0.697554 44.8611 0.717598 44.9337 0.746413 45.0026C0.750171 45.0102 0.75393 45.0177 0.757688 45.0252C0.765205 45.0402 0.771469 45.0553 0.778985 45.069C0.783996 45.0791 0.79026 45.0878 0.796524 45.0978C0.804041 45.1091 0.810305 45.1216 0.817821 45.1329C0.824085 45.1429 0.831602 45.1517 0.839119 45.1605C0.847888 45.1718 0.855406 45.183 0.865428 45.1931C0.872945 45.2018 0.88046 45.2093 0.887977 45.2181C0.897999 45.2294 0.908022 45.2394 0.919297 45.2494C0.923055 45.2532 0.925561 45.2557 0.929319 45.2595L5.84902 49.8008C5.84902 49.8008 5.85403 49.8033 5.85528 49.8058C5.88911 49.8359 5.92544 49.8634 5.96302 49.8873C5.96803 49.8898 5.97304 49.8935 5.97805 49.896C6.01564 49.9186 6.05447 49.9361 6.09582 49.9524C6.10083 49.9549 6.10709 49.9562 6.1121 49.9587C6.15219 49.9724 6.19353 49.9825 6.23613 49.99C6.24239 49.99 6.24865 49.9925 6.25492 49.9925C6.28874 49.9975 6.32382 50 6.3589 50H32.6411C32.6762 50 32.7113 49.9962 32.7451 49.9925C32.7514 49.9925 32.7576 49.9912 32.7639 49.99C32.8065 49.9825 32.8478 49.9724 32.8879 49.9587C32.8929 49.9562 32.8992 49.9549 32.9042 49.9524C32.9456 49.9374 32.9844 49.9186 33.022 49.896C33.027 49.8935 33.032 49.8898 33.037 49.8873C33.0758 49.8634 33.1109 49.8359 33.1447 49.8058C33.1473 49.8033 33.1498 49.8021 33.1523 49.8008L38.072 45.2595C38.072 45.2595 38.0745 45.2557 38.077 45.2544C38.1095 45.2231 38.1396 45.1893 38.1672 45.153C38.1709 45.148 38.1734 45.1442 38.1772 45.1404C38.2022 45.1041 38.2248 45.0665 38.2436 45.0264C38.2461 45.0214 38.2486 45.0177 38.2499 45.0127C38.2674 44.9726 38.2812 44.9312 38.2924 44.8886C38.2924 44.8836 38.295 44.8799 38.2962 44.8748C38.305 44.8335 38.3112 44.7909 38.3137 44.7483C38.3137 44.7421 38.3137 44.7358 38.3137 44.7295C38.3137 44.722 38.3137 44.7157 38.3137 44.7082V5.29177C38.3137 5.28426 38.3137 5.27799 38.3137 5.27048H38.3087ZM33.909 41.2693V8.72942L36.8066 6.38421V43.6145C35.8407 42.8328 34.8748 42.0511 33.909 41.2693ZM36.6889 5.51226L33.5494 8.05417L29.1872 4.02771L32.3066 1.50209H32.3442L36.6889 5.51226ZM19.4981 8.59663L11.8449 4.3835H27.1514L19.4981 8.59663ZM28.0609 4.7418L27.1264 8.84969L20.8937 8.68683L28.0609 4.7418ZM18.1013 8.68683L11.8687 8.84969L10.9341 4.7418L18.1013 8.68683ZM11.9 9.60136L19.4981 9.40217L27.0963 9.60136L29.2122 25.0006L27.0963 40.3999L19.4981 40.5978L11.9 40.3999L9.78402 25.0006L11.9 9.60136ZM27.8492 9.56503L33.0433 8.98374L29.6908 22.9686L27.8492 9.56378V9.56503ZM27.9081 8.80208L28.8352 4.72677L32.6724 8.26965L27.9068 8.80208H27.9081ZM28.4806 3.63434H10.5144L7.88229 1.50335H31.1127L28.4806 3.63434ZM11.0882 8.80208L6.32257 8.26965L10.1599 4.72677L11.0869 8.80208H11.0882ZM11.1471 9.56503L9.30546 22.9699L5.953 8.98499L11.1471 9.56629V9.56503ZM9.01982 25.0006L5.83899 38.2702V11.7299L9.01982 24.9994V25.0006ZM9.30546 27.0314L11.1471 40.4362L5.953 41.0163L9.30546 27.0314ZM11.0882 41.1992L10.1611 45.2745L6.32257 41.7316L11.0882 41.1992ZM11.8699 41.1503L18.1025 41.3132L10.9353 45.2582L11.8699 41.1503ZM19.4981 41.4021L27.1514 45.6152H11.8449L19.4981 41.4021ZM20.8937 41.3132L27.1264 41.1503L28.0609 45.2582L20.8937 41.3132ZM27.9081 41.1992L32.6737 41.7316L28.8364 45.2745L27.9093 41.1992H27.9081ZM27.8492 40.4362L29.6908 27.0314L33.0433 41.0163L27.8492 40.4362ZM29.9764 25.0006L33.1573 11.7324V38.2702L29.9764 25.0019V25.0006ZM6.6508 1.50209H6.68838L9.80782 4.02771L5.44562 8.05417C4.39954 7.20729 3.35221 6.35915 2.30613 5.51226L6.6508 1.50209ZM2.18837 6.38421C3.15427 7.16595 4.12017 7.94768 5.08607 8.72942V41.2693C4.12017 42.0511 3.15427 42.8328 2.18837 43.6145V6.38421ZM2.30613 44.4865C3.35221 43.6396 4.39954 42.7927 5.44562 41.9446L9.80782 45.971L6.68838 48.4967H6.6508L2.30613 44.4865ZM7.88229 48.4967L10.5144 46.3657H28.4794L31.1115 48.4967H7.88229ZM32.3442 48.4967H32.3066L29.1872 45.971L33.5481 41.9446C34.5942 42.7915 35.6416 43.6396 36.6876 44.4865L32.343 48.4967H32.3442Z" fill="black"/>
</svg>
