<svg width="50" height="50" viewBox="0 0 50 50" fill="none" xmlns="http://www.w3.org/2000/svg">
<path d="M23.2995 0.0611486C28.9225 -0.341397 34.6548 1.25612 39.2761 4.48182C42.1539 6.47389 44.6025 9.08511 46.4039 12.0889C48.5479 15.6478 49.7989 19.7466 49.9682 23.9007C50.1488 27.8848 49.3524 31.9049 47.6709 35.5205C46.1353 38.8455 43.8567 41.8233 41.0455 44.1719C38.4576 46.3459 35.4152 47.9661 32.1815 48.9425C28.1067 50.1721 23.7141 50.3381 19.5606 49.395C16.0117 48.6119 12.6434 47.0324 9.76091 44.8211C6.54321 42.3551 3.94199 39.0914 2.26849 35.3986C0.727622 32.0476 -0.0501451 28.3513 0.00250581 24.6651C0.0418274 21.8453 0.561672 19.0321 1.53405 16.3836C2.92163 12.5974 5.23827 9.15376 8.2327 6.4519C12.3528 2.71969 17.7505 0.423707 23.2995 0.0611486ZM17.258 2.67636C17.28 2.69702 17.326 2.73968 17.3466 2.76101C19.7486 3.74671 22.1465 4.74108 24.5438 5.73878C24.5945 4.28455 24.5631 2.82699 24.5611 1.37076C22.0779 1.41674 19.6033 1.86261 17.258 2.67636ZM25.4355 1.37076C25.4282 2.82765 25.4142 4.28521 25.4442 5.74144C27.8422 4.74508 30.2408 3.75204 32.6421 2.76101C32.666 2.74035 32.714 2.69703 32.7394 2.6757C30.3921 1.86727 27.9195 1.41674 25.4355 1.37076ZM15.7938 3.36216C15.0053 5.27225 14.2116 7.18035 13.4231 9.09044C13.1239 9.87287 12.7347 10.6246 12.4934 11.4264C14.6308 11.4457 16.7681 11.4264 18.9062 11.4357C19.0535 11.4344 19.2021 11.4424 19.3494 11.4157C19.7119 11.1018 20.0292 10.7393 20.3751 10.4074C21.6667 9.10177 22.9883 7.82482 24.2592 6.50188C21.5427 5.41154 18.8509 4.25722 16.1363 3.15689C15.9797 3.08824 15.8338 3.21687 15.7938 3.36216ZM33.7917 3.17888C31.1052 4.28188 28.4293 5.41621 25.7355 6.49922C27.2763 8.09807 28.8765 9.64294 30.4354 11.2265C30.5333 11.3364 30.6533 11.4444 30.8153 11.4157C33.0419 11.4124 35.2679 11.4264 37.4939 11.4091C37.4366 11.1152 37.286 10.8526 37.184 10.5733C36.1923 8.17205 35.1953 5.77477 34.2069 3.37282C34.1596 3.20154 33.955 3.07824 33.7917 3.17888ZM8.6859 7.90746C8.6739 7.93479 8.65058 7.98944 8.63925 8.01743C9.56964 8.96448 10.5134 9.9022 11.4584 10.8353C11.5364 10.9152 11.621 10.9885 11.715 11.0505C12.7134 8.61525 13.7497 6.19464 14.7221 3.75004C12.4941 4.77773 10.4634 6.21997 8.6859 7.90746ZM35.2746 3.74804C35.3872 4.13059 35.5705 4.48649 35.7131 4.85771C36.5682 6.92243 37.4186 8.98914 38.279 11.0512C39.3181 10.0861 40.2918 9.04645 41.3075 8.05608C41.4321 7.97344 41.2715 7.87614 41.2175 7.81416C39.4533 6.17598 37.4626 4.75974 35.2746 3.74804ZM20.8296 11.1325C20.7443 11.2118 20.669 11.3018 20.6143 11.4044C23.5374 11.4251 26.4606 11.4251 29.383 11.4044C29.327 11.3018 29.2517 11.2118 29.1671 11.1325C27.7708 9.75624 26.4019 8.35066 24.9977 6.98174C23.5954 8.35066 22.2258 9.75424 20.8296 11.1325ZM3.72139 14.7507C6.18132 13.7677 8.61192 12.7067 11.0772 11.735C11.0172 11.6277 10.9372 11.533 10.8466 11.4497C9.88888 10.508 8.95649 9.54297 7.99211 8.60925C6.24263 10.4 4.7964 12.4921 3.72139 14.7507ZM38.9308 11.6743C39.1161 11.799 39.3307 11.8656 39.5346 11.9516C40.8003 12.4734 42.0646 12.9973 43.3282 13.5218C44.2972 13.899 45.2383 14.3502 46.2206 14.6901C46.0427 14.1636 45.7281 13.6964 45.4689 13.2072C44.5032 11.5437 43.3575 9.97084 41.9959 8.60725C40.9629 9.61695 39.9399 10.638 38.9308 11.6743ZM12.2815 12.2402C12.2115 12.5287 12.2502 12.8267 12.2422 13.1192C12.2502 14.914 12.2262 16.7108 12.2555 18.5056C12.3388 18.459 12.4148 18.4016 12.4821 18.3337C14.4335 16.3743 16.3923 14.4208 18.347 12.4648C18.4156 12.3935 18.4743 12.3135 18.5323 12.2342C16.4502 12.2682 14.3655 12.2568 12.2815 12.2402ZM19.7559 12.2402C17.358 14.6334 14.9654 17.0314 12.5694 19.424C12.4341 19.5753 12.2042 19.7026 12.2435 19.9379C12.2408 23.2735 12.2455 26.6099 12.2408 29.9462C12.2535 30.0755 12.2142 30.2394 12.3281 30.3367C14.7521 32.7627 17.1794 35.186 19.6033 37.6132C19.6806 37.7039 19.7859 37.7612 19.9079 37.7412C23.3528 37.7365 26.7978 37.7465 30.2414 37.7359C32.7287 35.2506 35.2159 32.7633 37.7012 30.2768C37.7692 29.3837 37.7105 28.478 37.7299 27.5796C37.7259 24.9484 37.7379 22.3171 37.7245 19.6853C35.2566 17.2393 32.8107 14.7714 30.3467 12.3188C30.2634 12.2108 30.1221 12.2388 30.0042 12.2335C26.5872 12.2408 23.1716 12.2288 19.7559 12.2402ZM31.4577 12.2295C32.4974 13.3052 33.5704 14.3469 34.6221 15.4092C35.6598 16.4349 36.6735 17.4853 37.7245 18.495C37.7285 16.4062 37.7392 14.3162 37.7192 12.2275C35.6325 12.2428 33.5458 12.2382 31.4577 12.2295ZM3.19288 15.8757C3.11557 16.075 3.22354 16.2676 3.29552 16.4496C4.38586 19.0421 5.43421 21.654 6.53721 24.2406C6.57853 24.2079 6.66118 24.1406 6.70183 24.1079C8.28402 22.5344 9.85355 20.9456 11.4411 19.3774C11.4544 17.0754 11.4477 14.7741 11.4451 12.4728C8.6859 13.5831 5.94472 14.7447 3.19288 15.8757ZM38.5529 12.4561C38.5403 14.6488 38.5536 16.8414 38.5469 19.0348C38.5609 19.1588 38.5116 19.3227 38.6223 19.414C40.2418 21.0109 41.8273 22.6417 43.4568 24.2259C44.5711 21.5987 45.6401 18.9508 46.7452 16.3196C46.7971 16.1796 46.8764 16.0237 46.7931 15.8777C46.5839 15.7378 46.3373 15.6658 46.1087 15.5638C43.5874 14.5361 41.0829 13.4611 38.5529 12.4561ZM1.36943 24.5685C2.82966 24.5885 4.29055 24.5771 5.75078 24.5751C4.77174 22.1025 3.71539 19.6566 2.71436 17.1913C1.85462 19.5493 1.42608 22.0612 1.36943 24.5685ZM47.135 17.5199C46.3853 19.3467 45.6282 21.1715 44.8717 22.9943C44.6678 23.5248 44.4045 24.0333 44.2446 24.5791C45.7048 24.5731 47.167 24.5911 48.6273 24.5698C48.5859 22.0799 48.1207 19.608 47.3276 17.2513C47.1764 17.192 47.1943 17.4379 47.135 17.5199ZM7.02573 24.9663L7.0224 25.019C8.38266 26.4106 9.77691 27.7715 11.1458 29.1564C11.2325 29.2471 11.3291 29.3257 11.4317 29.3984C11.4184 26.4592 11.4197 23.5208 11.4304 20.581C9.94486 22.0246 8.49862 23.5088 7.02573 24.9663ZM38.5523 20.559C38.5469 23.5088 38.5443 26.4586 38.5529 29.407C40.0425 27.9595 41.4947 26.4706 42.9703 25.0083L42.9743 24.955C42.0826 24.0353 41.1628 23.1396 40.2611 22.2292C39.6846 21.6793 39.1561 21.0748 38.5523 20.559ZM1.37143 25.4075C1.37876 26.6832 1.52738 27.9555 1.74265 29.2124C1.98391 30.422 2.25716 31.6397 2.71436 32.7867C3.65275 30.5587 4.56114 28.3167 5.49619 26.0867C5.58483 25.8567 5.6988 25.6368 5.75411 25.3962C4.29255 25.4042 2.83099 25.3829 1.37143 25.4075ZM44.2479 25.3996C45.2036 27.8541 46.2773 30.2661 47.2423 32.7174C47.4243 32.764 47.3996 32.3768 47.4843 32.2482C48.1934 30.0388 48.5866 27.7275 48.6273 25.4056C47.1677 25.3869 45.7068 25.3989 44.2479 25.3996ZM6.53855 25.7488C5.41755 28.3987 4.33454 31.0658 3.22554 33.7224C3.15556 33.8677 3.09558 34.1209 3.30818 34.1743C6.02403 35.2833 8.72189 36.4402 11.4471 37.5206C11.4484 35.2679 11.4497 33.0139 11.4471 30.7619C11.4677 30.632 11.3651 30.5487 11.2838 30.47C9.6936 28.9045 8.1394 27.303 6.53855 25.7488ZM42.8843 26.2773C41.4381 27.7149 40.0065 29.1664 38.5536 30.5973C38.5429 32.8993 38.5483 35.2026 38.5509 37.5046C41.3121 36.3909 44.0526 35.2279 46.8091 34.1023C46.8611 33.945 46.8185 33.7864 46.7478 33.6437C45.6448 31.0119 44.5758 28.3633 43.4588 25.7361C43.2415 25.8867 43.0729 26.0947 42.8843 26.2773ZM12.2555 31.4811C12.2255 33.1806 12.2502 34.882 12.2422 36.5835C12.2528 36.9707 12.2162 37.3606 12.2668 37.7472C14.3575 37.7339 16.4469 37.7359 18.5369 37.7465C16.5322 35.6985 14.4822 33.6924 12.4674 31.6543C12.4028 31.5904 12.3308 31.5317 12.2555 31.4811ZM36.017 33.1432C34.6688 34.4915 33.3198 35.8404 31.9716 37.1887C31.7956 37.368 31.6024 37.5306 31.4631 37.7419C32.1869 37.7005 32.9126 37.7325 33.6378 37.7232C34.9947 37.7319 36.3536 37.7039 37.7105 37.7372C37.7525 35.6498 37.7219 33.5584 37.7252 31.4717C37.122 31.9882 36.5935 32.5921 36.017 33.1432ZM3.71406 35.2406C4.79374 37.4979 6.2293 39.6046 7.99144 41.3814C9.02113 40.3644 10.0562 39.3434 11.0639 38.3017C10.8119 38.1511 10.5333 38.0611 10.2668 37.9471C8.08208 37.0454 5.9014 36.1343 3.71406 35.2406ZM38.9195 38.2437C39.0221 38.4263 39.1888 38.5583 39.334 38.7062C40.2171 39.606 41.1048 40.501 42.0079 41.3821C43.0136 40.3797 43.8853 39.2494 44.6778 38.0738C45.2696 37.1587 45.8381 36.221 46.2766 35.2239C43.8174 36.2123 41.3834 37.2673 38.9195 38.2437ZM12.5001 38.5643C12.5261 38.7722 12.6261 38.9562 12.706 39.1461C13.7424 41.6567 14.7821 44.1639 15.8191 46.6745C15.8644 46.8411 16.053 46.8858 16.1923 46.8011C18.8848 45.7028 21.5627 44.5645 24.2592 43.4748C23.2342 42.3911 22.1512 41.3594 21.1048 40.2951C20.5157 39.7266 19.9639 39.1121 19.3507 38.5716C17.0681 38.5443 14.7834 38.5603 12.5001 38.5643ZM20.6143 38.5709C20.6676 38.6742 20.7443 38.7635 20.8296 38.8429C22.2258 40.2211 23.5954 41.6247 24.9977 42.9943C26.4006 41.624 27.7708 40.2211 29.1671 38.8429C29.2517 38.7635 29.327 38.6729 29.3824 38.5716C26.4606 38.5503 23.5374 38.5503 20.6143 38.5709ZM27.8468 41.3401C27.1477 42.0572 26.4139 42.7424 25.7355 43.4761C28.4326 44.5631 31.1098 45.7048 33.803 46.8011C33.9423 46.8858 34.1316 46.8411 34.1769 46.6732C35.1793 44.2492 36.183 41.8266 37.188 39.4034C37.2953 39.1188 37.4479 38.8495 37.5059 38.5489C35.2213 38.5443 32.932 38.5216 30.6486 38.5609C29.6956 39.4647 28.7845 40.417 27.8468 41.3401ZM8.6859 41.9233C8.55927 42.0032 8.70123 42.1132 8.76654 42.1745C10.4874 43.7914 12.4474 45.1576 14.5668 46.1966C14.6081 46.208 14.6881 46.2286 14.7294 46.2386C13.7491 43.792 12.7227 41.3628 11.715 38.9262C10.6766 39.8925 9.70293 40.9316 8.6859 41.9233ZM38.283 38.9282C37.2767 41.3641 36.2436 43.7927 35.2699 46.242C35.3259 46.2233 35.4379 46.188 35.4939 46.1713C37.6212 45.103 39.6093 43.7414 41.3174 42.0792C41.4427 41.9919 41.2748 41.8893 41.2201 41.8226C40.2318 40.8676 39.2981 39.8499 38.283 38.9282ZM25.4562 44.2379C25.4002 45.6961 25.4362 47.1577 25.4355 48.6166C27.8175 48.6053 30.1941 48.1681 32.4521 47.415C32.5507 47.371 32.688 47.3603 32.7367 47.2457C30.3021 46.262 27.8795 45.2483 25.4562 44.2379ZM22.3725 45.1423C20.667 45.8401 18.9708 46.5619 17.2613 47.247C17.3086 47.3603 17.4446 47.3716 17.5459 47.415C19.8046 48.1654 22.1799 48.5999 24.5618 48.6166C24.5725 47.169 24.5738 45.7188 24.5611 44.2706C23.8107 44.4965 23.1029 44.8577 22.3725 45.1423Z" fill="black"/>
</svg>
