<svg width="27" height="27" viewBox="0 0 27 27" fill="none" xmlns="http://www.w3.org/2000/svg">
<path d="M19.7502 26C20.3027 26 20.8326 25.7805 21.2233 25.3898C21.614 24.9991 21.8335 24.4692 21.8335 23.9167C21.8335 23.3641 21.614 22.8342 21.2233 22.4435C20.8326 22.0528 20.3027 21.8333 19.7502 21.8333C19.1976 21.8333 18.6677 22.0528 18.277 22.4435C17.8863 22.8342 17.6668 23.3641 17.6668 23.9167C17.6668 24.4692 17.8863 24.9991 18.277 25.3898C18.6677 25.7805 19.1976 26 19.7502 26ZM8.63895 26C9.19149 26 9.7214 25.7805 10.1121 25.3898C10.5028 24.9991 10.7223 24.4692 10.7223 23.9167C10.7223 23.3641 10.5028 22.8342 10.1121 22.4435C9.7214 22.0528 9.19149 21.8333 8.63895 21.8333C8.08641 21.8333 7.55651 22.0528 7.1658 22.4435C6.7751 22.8342 6.5556 23.3641 6.5556 23.9167C6.5556 24.4692 6.7751 24.9991 7.1658 25.3898C7.55651 25.7805 8.08641 26 8.63895 26ZM1.98612 4.33333H23.1169C25.0308 4.33333 26.4127 6.09722 25.8877 7.87222L23.5905 15.65C23.2363 16.8444 22.1057 17.6667 20.8196 17.6667H8.10006C6.81255 17.6667 5.6806 16.8431 5.32781 15.65L1.98612 4.33333ZM1.98612 4.33333L1 1Z" fill="#000080" fill-opacity="0.5"/>
<path d="M1.98612 4.33333H23.1169C25.0308 4.33333 26.4127 6.09722 25.8877 7.87222L23.5905 15.65C23.2363 16.8444 22.1057 17.6667 20.8196 17.6667H8.10006C6.81255 17.6667 5.6806 16.8431 5.32781 15.65L1.98612 4.33333ZM1.98612 4.33333L1 1M19.7502 26C20.3027 26 20.8326 25.7805 21.2233 25.3898C21.614 24.9991 21.8335 24.4692 21.8335 23.9167C21.8335 23.3641 21.614 22.8342 21.2233 22.4435C20.8326 22.0528 20.3027 21.8333 19.7502 21.8333C19.1976 21.8333 18.6677 22.0528 18.277 22.4435C17.8863 22.8342 17.6668 23.3641 17.6668 23.9167C17.6668 24.4692 17.8863 24.9991 18.277 25.3898C18.6677 25.7805 19.1976 26 19.7502 26ZM8.63895 26C9.19149 26 9.7214 25.7805 10.1121 25.3898C10.5028 24.9991 10.7223 24.4692 10.7223 23.9167C10.7223 23.3641 10.5028 22.8342 10.1121 22.4435C9.7214 22.0528 9.19149 21.8333 8.63895 21.8333C8.08641 21.8333 7.55651 22.0528 7.1658 22.4435C6.7751 22.8342 6.5556 23.3641 6.5556 23.9167C6.5556 24.4692 6.7751 24.9991 7.1658 25.3898C7.55651 25.7805 8.08641 26 8.63895 26Z" stroke="#000080" stroke-linecap="round" stroke-linejoin="round"/>
</svg>
