<svg width="20" height="20" viewBox="0 0 20 20" fill="none" xmlns="http://www.w3.org/2000/svg">
<path d="M0.53686 0.0306988C0.631411 0.0027817 0.730539 -0.00622045 0.828572 0.00420735C0.926605 0.0146352 1.02162 0.0442883 1.10818 0.0914705C1.19474 0.138653 1.27116 0.202438 1.33304 0.279178C1.39493 0.355918 1.44109 0.444106 1.46886 0.538699L2.01886 2.4007H16.6739C18.5139 2.4007 19.9189 4.1177 19.3889 5.9107L17.7339 11.5107C17.3819 12.7047 16.2629 13.5007 15.0189 13.5007H5.86286C4.61886 13.5007 3.50086 12.7047 3.14786 11.5107L0.0308604 0.963699C-0.0255992 0.773009 -0.00401074 0.567701 0.0908783 0.392925C0.185767 0.218149 0.346187 0.0872161 0.53686 0.0306988ZM3.99986 17.2507C3.99986 16.654 4.23691 16.0817 4.65887 15.6597C5.08083 15.2378 5.65312 15.0007 6.24986 15.0007C6.8466 15.0007 7.41889 15.2378 7.84085 15.6597C8.26281 16.0817 8.49986 16.654 8.49986 17.2507C8.49986 17.8474 8.26281 18.4197 7.84085 18.8417C7.41889 19.2636 6.8466 19.5007 6.24986 19.5007C5.65312 19.5007 5.08083 19.2636 4.65887 18.8417C4.23691 18.4197 3.99986 17.8474 3.99986 17.2507ZM11.9999 17.2507C11.9999 16.9552 12.0581 16.6626 12.1711 16.3897C12.2842 16.1167 12.4499 15.8686 12.6589 15.6597C12.8678 15.4508 13.1158 15.285 13.3888 15.172C13.6618 15.0589 13.9544 15.0007 14.2499 15.0007C14.5453 15.0007 14.8379 15.0589 15.1109 15.172C15.3839 15.285 15.6319 15.4508 15.8409 15.6597C16.0498 15.8686 16.2155 16.1167 16.3286 16.3897C16.4417 16.6626 16.4999 16.9552 16.4999 17.2507C16.4999 17.8474 16.2628 18.4197 15.8409 18.8417C15.4189 19.2636 14.8466 19.5007 14.2499 19.5007C13.6531 19.5007 13.0808 19.2636 12.6589 18.8417C12.2369 18.4197 11.9999 17.8474 11.9999 17.2507Z" fill="#6666E6"/>
</svg>
