<svg width="27" height="25" viewBox="0 0 27 25" fill="none" xmlns="http://www.w3.org/2000/svg">
<path d="M1 3.94444C1 3.29614 1.26339 2.67438 1.73223 2.21596C2.20107 1.75754 2.83696 1.5 3.5 1.5H11V23.5H3.5C2.83696 23.5 2.20107 23.2425 1.73223 22.784C1.26339 22.3256 1 21.7039 1 21.0556V3.94444ZM16 1.5H23.5C24.163 1.5 24.7989 1.75754 25.2678 2.21596C25.7366 2.67438 26 3.29614 26 3.94444V10.0556H16V1.5ZM16 14.9444H26V21.0556C26 21.7039 25.7366 22.3256 25.2678 22.784C24.7989 23.2425 24.163 23.5 23.5 23.5H16V14.9444Z" stroke="black" stroke-width="2" stroke-linecap="round" stroke-linejoin="round"/>
</svg>
