<svg width="26" height="26" viewBox="0 0 26 26" fill="none" xmlns="http://www.w3.org/2000/svg">
<path d="M24.5467 10.2329L24.5466 10.2332C24.5212 10.413 24.4406 10.5761 24.3211 10.6987L19.1681 15.9691L18.9914 16.1499L19.0322 16.3993L20.248 23.8374C20.2728 23.9909 20.2558 24.1484 20.1997 24.2912C20.1436 24.434 20.0514 24.5545 19.9364 24.6411C19.8217 24.7276 19.6882 24.7773 19.5513 24.7872C19.4145 24.7971 19.2767 24.7671 19.153 24.6988L19.1528 24.6986L12.797 21.1938L12.5556 21.0607L12.3141 21.1938L5.95904 24.6989C5.95876 24.699 5.95847 24.6992 5.95819 24.6993C5.83444 24.7667 5.69687 24.796 5.56038 24.7857C5.42353 24.7753 5.29015 24.7253 5.17547 24.6387C5.06057 24.5519 4.96851 24.4314 4.91233 24.2887C4.85621 24.1462 4.83893 23.9891 4.86319 23.8358C4.86323 23.8355 4.86328 23.8352 4.86333 23.8349L6.07901 16.3993L6.11979 16.1499L5.94307 15.9691L0.790761 10.6995L0.790592 10.6993C0.688057 10.5945 0.613568 10.4597 0.578191 10.309C0.542798 10.1582 0.548568 9.99997 0.594588 9.85284C0.640579 9.70581 0.724205 9.57789 0.833284 9.48208C0.94217 9.38644 1.0722 9.32635 1.20806 9.30576L1.20852 9.30569L8.32205 8.22103L8.58564 8.18084L8.69913 7.93956L11.8698 1.19881C11.9423 1.0729 12.043 0.970618 12.1606 0.899821C12.2819 0.826739 12.4178 0.789142 12.5549 0.789062C12.6919 0.788983 12.8279 0.826421 12.9493 0.899357C13.0668 0.969976 13.1676 1.07206 13.2403 1.1978L16.4121 7.9396L16.5256 8.18084L16.7891 8.22103L23.9027 9.30569L23.9029 9.30572C23.9989 9.32032 24.0921 9.35464 24.1773 9.40765C24.2625 9.4607 24.3383 9.53165 24.3994 9.61738C24.4606 9.70316 24.5057 9.80179 24.5312 9.90782C24.5568 10.0139 24.5621 10.1244 24.5467 10.2329Z" fill="#000080" fill-opacity="0.5" stroke="#000080"/>
</svg>
