<svg width="25" height="25" viewBox="0 0 25 25" fill="none" xmlns="http://www.w3.org/2000/svg">
<path d="M24.9864 10.0141C25.0107 9.84324 25.0024 9.6691 24.962 9.50162C24.9217 9.33413 24.85 9.1766 24.7512 9.03803C24.6524 8.89947 24.5284 8.7826 24.3862 8.69411C24.244 8.60562 24.0865 8.54725 23.9227 8.52234L16.8092 7.43768L13.6294 0.678919C13.5147 0.472326 13.3498 0.300848 13.1515 0.181686C12.9531 0.0625241 12.7282 -0.000132814 12.4993 2.11377e-07C12.2704 0.000133237 12.0456 0.0630516 11.8473 0.182444C11.6491 0.301837 11.4844 0.473506 11.3699 0.680232L8.19139 7.43768L1.07785 8.52234C0.84566 8.55753 0.627514 8.65971 0.448032 8.81735C0.268549 8.975 0.134876 9.18183 0.0620939 9.41452C-0.0106876 9.6472 -0.0196799 9.89648 0.036132 10.1342C0.091944 10.3719 0.210338 10.5887 0.377955 10.7599L5.53026 16.0296L4.31425 23.4673C4.27581 23.7087 4.30267 23.9565 4.3918 24.1828C4.48094 24.4092 4.62882 24.6051 4.81883 24.7486C5.00884 24.8921 5.23345 24.9775 5.46742 24.9952C5.70139 25.0129 5.93545 24.9621 6.1433 24.8487L12.5003 21.3426L18.856 24.8474C19.0636 24.962 19.2978 25.0138 19.5321 24.9969C19.7665 24.9799 19.9916 24.8949 20.182 24.7514C20.3724 24.608 20.5206 24.4118 20.6097 24.1851C20.6988 23.9584 20.7254 23.7102 20.6863 23.4686L19.4703 16.0296L24.6239 10.7586C24.8192 10.5582 24.9465 10.2968 24.9864 10.0141ZM18.3538 15.3323C18.2812 15.4065 18.2269 15.4979 18.1955 15.5988C18.1642 15.6996 18.1567 15.8069 18.1737 15.9114L19.4451 23.6866L12.7936 20.0189C12.7032 19.9693 12.6025 19.9433 12.5003 19.9433C12.3981 19.9433 12.2974 19.9693 12.207 20.0189L5.55544 23.6879L6.82684 15.9114C6.84388 15.8069 6.83641 15.6996 6.80506 15.5988C6.77371 15.4979 6.71942 15.4065 6.64683 15.3323L1.25912 9.82104L8.70121 8.68649C8.80249 8.67109 8.89865 8.63015 8.98135 8.56722C9.06405 8.5043 9.13078 8.42128 9.17578 8.32537L12.5003 1.25933L15.8236 8.32668C15.8687 8.42276 15.9356 8.50588 16.0185 8.56882C16.1014 8.63176 16.1979 8.6726 16.2994 8.6878L23.7427 9.82104L18.3538 15.3323Z" fill="black"/>
</svg>
