<svg width="20" height="20" viewBox="0 0 20 20" fill="none" xmlns="http://www.w3.org/2000/svg">
<path d="M3.41998 0.5H9.41998C10.2156 0.5 10.9787 0.816071 11.5413 1.37868C12.1039 1.94129 12.42 2.70435 12.42 3.5V7.5H11.42V3.5C11.42 2.96957 11.2093 2.46086 10.8342 2.08579C10.4591 1.71071 9.95042 1.5 9.41998 1.5H3.41998C2.88955 1.5 2.38084 1.71071 2.00577 2.08579C1.6307 2.46086 1.41998 2.96957 1.41998 3.5V16.5C1.41998 17.0304 1.6307 17.5391 2.00577 17.9142C2.38084 18.2893 2.88955 18.5 3.41998 18.5H9.41998C9.95042 18.5 10.4591 18.2893 10.8342 17.9142C11.2093 17.5391 11.42 17.0304 11.42 16.5V12.5H12.42V16.5C12.42 17.2956 12.1039 18.0587 11.5413 18.6213C10.9787 19.1839 10.2156 19.5 9.41998 19.5H3.41998C2.62433 19.5 1.86127 19.1839 1.29866 18.6213C0.736054 18.0587 0.419983 17.2956 0.419983 16.5V3.5C0.419983 2.70435 0.736054 1.94129 1.29866 1.37868C1.86127 0.816071 2.62433 0.5 3.41998 0.5ZM6.41998 9.5H17.67L14.42 6.25L15.08 5.5L19.58 10L15.08 14.5L14.42 13.75L17.67 10.5H6.41998V9.5Z" fill="#D32F2F"/>
</svg>
