<svg width="25" height="25" viewBox="0 0 25 25" fill="none" xmlns="http://www.w3.org/2000/svg">
<path fill-rule="evenodd" clip-rule="evenodd" d="M10.3052 2.37813C8.20282 2.37813 6.18654 3.2133 4.69992 4.69992C3.2133 6.18654 2.37813 8.20282 2.37813 10.3052C2.37813 12.4076 3.2133 14.4239 4.69992 15.9105C6.18654 17.3971 8.20282 18.2323 10.3052 18.2323C12.4076 18.2323 14.4239 17.3971 15.9105 15.9105C17.3971 14.4239 18.2323 12.4076 18.2323 10.3052C18.2323 8.20282 17.3971 6.18654 15.9105 4.69992C14.4239 3.2133 12.4076 2.37813 10.3052 2.37813ZM0 10.3052C0 7.57211 1.08573 4.95093 3.01833 3.01833C4.95093 1.08573 7.57211 0 10.3052 0C13.0383 0 15.6595 1.08573 17.5921 3.01833C19.5247 4.95093 20.6104 7.57211 20.6104 10.3052C20.6104 13.0383 19.5247 15.6595 17.5921 17.5921C15.6595 19.5247 13.0383 20.6104 10.3052 20.6104C7.57211 20.6104 4.95093 19.5247 3.01833 17.5921C1.08573 15.6595 0 13.0383 0 10.3052Z" fill="black"/>
<path fill-rule="evenodd" clip-rule="evenodd" d="M16.5994 16.5995C16.8223 16.3768 17.1246 16.2517 17.4397 16.2517C17.7548 16.2517 18.057 16.3768 18.2799 16.5995L24.6216 22.9411C24.7384 23.05 24.8321 23.1813 24.8971 23.3271C24.9621 23.473 24.9971 23.6304 24.9999 23.7901C25.0027 23.9497 24.9733 24.1083 24.9135 24.2564C24.8537 24.4044 24.7647 24.5389 24.6518 24.6519C24.5389 24.7648 24.4044 24.8538 24.2563 24.9136C24.1083 24.9734 23.9497 25.0028 23.79 24.9999C23.6304 24.9971 23.4729 24.9622 23.3271 24.8972C23.1812 24.8322 23.0499 24.7385 22.9411 24.6217L16.5994 18.28C16.3767 18.057 16.2516 17.7548 16.2516 17.4397C16.2516 17.1246 16.3767 16.8224 16.5994 16.5995Z" fill="black"/>
</svg>
