<svg width="26" height="28" viewBox="0 0 26 28" fill="none" xmlns="http://www.w3.org/2000/svg">
<path d="M13.2928 1.5H12.7072C12.0014 1.5 11.3244 1.76339 10.8253 2.23223C10.3262 2.70107 10.0458 3.33696 10.0458 4V4.225C10.0453 4.66341 9.92209 5.09399 9.68852 5.47355C9.45495 5.85311 9.11923 6.1683 8.71504 6.3875L8.14282 6.7C7.73823 6.91942 7.27927 7.03494 6.81209 7.03494C6.3449 7.03494 5.88595 6.91942 5.48135 6.7L5.28174 6.6C4.67102 6.26908 3.94547 6.1793 3.26435 6.35039C2.58324 6.52147 2.00222 6.93942 1.64884 7.5125L1.35608 7.9875C1.00378 8.56117 0.908211 9.2427 1.09034 9.8825C1.27247 10.5223 1.71742 11.0681 2.32751 11.4L2.52712 11.525C2.92937 11.7431 3.26384 12.0564 3.4973 12.4335C3.73075 12.8107 3.85505 13.2387 3.85786 13.675V14.3125C3.85972 14.753 3.73763 15.1862 3.50394 15.5681C3.27026 15.9501 2.93328 16.2672 2.52712 16.4875L2.32751 16.6C1.71742 16.9319 1.27247 17.4777 1.09034 18.1175C0.908211 18.7573 1.00378 19.4388 1.35608 20.0125L1.64884 20.4875C2.00222 21.0606 2.58324 21.4785 3.26435 21.6496C3.94547 21.8207 4.67102 21.7309 5.28174 21.4L5.48135 21.3C5.88595 21.0806 6.3449 20.9651 6.81209 20.9651C7.27927 20.9651 7.73823 21.0806 8.14282 21.3L8.71504 21.6125C9.11923 21.8317 9.45495 22.1469 9.68852 22.5265C9.92209 22.906 10.0453 23.3366 10.0458 23.775V24C10.0458 24.663 10.3262 25.2989 10.8253 25.7678C11.3244 26.2366 12.0014 26.5 12.7072 26.5H13.2928C13.9986 26.5 14.6756 26.2366 15.1747 25.7678C15.6738 25.2989 15.9542 24.663 15.9542 24V23.775C15.9547 23.3366 16.0779 22.906 16.3115 22.5265C16.545 22.1469 16.8808 21.8317 17.285 21.6125L17.8572 21.3C18.2618 21.0806 18.7207 20.9651 19.1879 20.9651C19.6551 20.9651 20.1141 21.0806 20.5186 21.3L20.7183 21.4C21.329 21.7309 22.0545 21.8207 22.7356 21.6496C23.4168 21.4785 23.9978 21.0606 24.3512 20.4875L24.6439 20C24.9962 19.4263 25.0918 18.7448 24.9097 18.105C24.7275 17.4652 24.2826 16.9194 23.6725 16.5875L23.4729 16.4875C23.0667 16.2672 22.7297 15.9501 22.4961 15.5681C22.2624 15.1862 22.1403 14.753 22.1421 14.3125V13.6875C22.1403 13.247 22.2624 12.8138 22.4961 12.4319C22.7297 12.0499 23.0667 11.7328 23.4729 11.5125L23.6725 11.4C24.2826 11.0681 24.7275 10.5223 24.9097 9.8825C25.0918 9.2427 24.9962 8.56117 24.6439 7.9875L24.3512 7.5125C23.9978 6.93942 23.4168 6.52147 22.7356 6.35039C22.0545 6.1793 21.329 6.26908 20.7183 6.6L20.5186 6.7C20.1141 6.91942 19.6551 7.03494 19.1879 7.03494C18.7207 7.03494 18.2618 6.91942 17.8572 6.7L17.285 6.3875C16.8808 6.1683 16.545 5.85311 16.3115 5.47355C16.0779 5.09399 15.9547 4.66341 15.9542 4.225V4C15.9542 3.33696 15.6738 2.70107 15.1747 2.23223C14.6756 1.76339 13.9986 1.5 13.2928 1.5Z" stroke="black" stroke-opacity="0.5" stroke-width="2" stroke-linecap="round" stroke-linejoin="round"/>
<path d="M13 17.75C15.2048 17.75 16.9922 16.0711 16.9922 14C16.9922 11.9289 15.2048 10.25 13 10.25C10.7952 10.25 9.00781 11.9289 9.00781 14C9.00781 16.0711 10.7952 17.75 13 17.75Z" stroke="black" stroke-opacity="0.5" stroke-width="2" stroke-linecap="round" stroke-linejoin="round"/>
</svg>
