<svg width="27" height="28" viewBox="0 0 27 28" fill="none" xmlns="http://www.w3.org/2000/svg">
<path d="M1 23.375C1 21.7174 1.65848 20.1277 2.83058 18.9556C4.00268 17.7835 5.5924 17.125 7.25 17.125H19.75C21.4076 17.125 22.9973 17.7835 24.1694 18.9556C25.3415 20.1277 26 21.7174 26 23.375C26 24.2038 25.6708 24.9987 25.0847 25.5847C24.4987 26.1708 23.7038 26.5 22.875 26.5H4.125C3.2962 26.5 2.50134 26.1708 1.91529 25.5847C1.32924 24.9987 1 24.2038 1 23.375Z" stroke="black" stroke-width="2" stroke-linejoin="round"/>
<path d="M13.5 10.875C16.0888 10.875 18.1875 8.77633 18.1875 6.1875C18.1875 3.59867 16.0888 1.5 13.5 1.5C10.9112 1.5 8.8125 3.59867 8.8125 6.1875C8.8125 8.77633 10.9112 10.875 13.5 10.875Z" stroke="black" stroke-width="2"/>
</svg>
